<svg xmlns="http://www.w3.org/2000/svg" viewBox="0 0 512 512"><defs><linearGradient id="g" x1="0" y1="0" x2="1" y2="1"><stop stop-color="#38bdf8"/><stop offset="1" stop-color="#0ea5e9"/></linearGradient></defs><rect x="24" y="24" width="464" height="464" rx="88" fill="url(#g)"/><path d="M146 151h220c18 0 32 14 32 32s-14 32-32 32h-72v129c0 20-16 36-36 36s-36-16-36-36V215h-76c-18 0-32-14-32-32s14-32 32-32z" fill="#fff"/><path d="M104 332c74-55 146-55 220 0" fill="none" stroke="#e0f2fe" stroke-width="34" stroke-linecap="round"/><path d="M164 366c60-37 120-37 180 0" fill="none" stroke="#67e8f9" stroke-width="24" stroke-linecap="round"/></svg>